<svg height='100px' width='100px'  fill="#666666" xmlns="http://www.w3.org/2000/svg" xmlns:xlink="http://www.w3.org/1999/xlink" version="1.1" x="0px" y="0px" viewBox="0 0 90 90" enable-background="new 0 0 90 90" xml:space="preserve"><g><path d="M80.9,46H24.8c-0.6,0-1-0.4-1-1s0.4-1,1-1h56.1c0.6,0,1,0.4,1,1S81.4,46,80.9,46z"></path></g><g><path d="M18.3,46H9.1c-0.6,0-1-0.4-1-1s0.4-1,1-1h9.2c0.6,0,1,0.4,1,1S18.8,46,18.3,46z"></path></g><g><path d="M21.5,56.3c-2.3,0-4.3-1.9-4.3-4.3V37.9c0-2.3,1.9-4.3,4.3-4.3c1.1,0,2.2,0.4,3,1.2c0.8,0.8,1.3,1.9,1.3,3v14.2   C25.8,54.4,23.9,56.3,21.5,56.3z M21.5,35.7c-1.2,0-2.3,1-2.3,2.3v14.2c0,1.2,1,2.3,2.3,2.3s2.3-1,2.3-2.3V37.9   c0-0.6-0.2-1.2-0.7-1.6C22.7,35.9,22.1,35.7,21.5,35.7z"></path></g><g><path d="M80.9,73h-34c-0.6,0-1-0.4-1-1s0.4-1,1-1h34c0.6,0,1,0.4,1,1S81.4,73,80.9,73z"></path></g><g><path d="M40.4,73H9.1c-0.6,0-1-0.4-1-1s0.4-1,1-1h31.3c0.6,0,1,0.4,1,1S40.9,73,40.4,73z"></path></g><g><path d="M43.6,83.3c-2.3,0-4.3-1.9-4.3-4.3V64.9c0-2.3,1.9-4.3,4.3-4.3c1.1,0,2.2,0.4,3,1.2c0.8,0.8,1.2,1.9,1.2,3v14.2   C47.9,81.4,46,83.3,43.6,83.3z M43.6,62.7c-1.2,0-2.3,1-2.3,2.3v14.2c0,1.2,1,2.3,2.3,2.3s2.3-1,2.3-2.3V64.9   c0-0.6-0.2-1.2-0.7-1.6C44.8,62.9,44.2,62.7,43.6,62.7z"></path></g><g><path d="M80.9,19H69.8c-0.6,0-1-0.4-1-1s0.4-1,1-1h11.1c0.6,0,1,0.4,1,1S81.4,19,80.9,19z"></path></g><g><path d="M63.3,19H9.1c-0.6,0-1-0.4-1-1s0.4-1,1-1h54.2c0.6,0,1,0.4,1,1S63.8,19,63.3,19z"></path></g><g><path d="M66.5,29.3c-2.3,0-4.3-1.9-4.3-4.3V10.9c0-2.3,1.9-4.3,4.3-4.3c1.1,0,2.2,0.4,3,1.2c0.8,0.8,1.3,1.9,1.3,3v14.2   C70.8,27.4,68.9,29.3,66.5,29.3z M66.5,8.7c-1.2,0-2.3,1-2.3,2.3v14.2c0,1.2,1,2.3,2.3,2.3s2.3-1,2.3-2.3V10.9   c0-0.6-0.2-1.2-0.7-1.6C67.7,8.9,67.1,8.7,66.5,8.7z"></path></g></svg>