<svg height='100px' width='100px'  fill="#666666" xmlns="http://www.w3.org/2000/svg" data-name="Layer 1" viewBox="0 0 512 512" x="0px" y="0px"><title>l6</title><path d="M431,0H81A81,81,0,0,0,0,81V431a81,81,0,0,0,81,81H431a81,81,0,0,0,81-81V81A81,81,0,0,0,431,0ZM220.21,360.48c-16.2-.05-32.43.41-48.6-0.39a45.5,45.5,0,0,1-43.35-44.56c-0.5-19.85-.1-39.53-0.1-59.53h-0.1c0-19,.22-37.83-0.05-56.71-0.38-25.82,19.45-43.65,37.52-46.8a71.49,71.49,0,0,1,11.77-1c15.64-.11,31.28-0.07,46.92,0,6.79,0,8.05,1.27,8.35,8.12,0.52,12-.21,12.74-12,12.74-14.37,0-28.74,0-43.12,0-17.62,0-28.55,10.83-28.58,28.42q-0.1,55.16,0,110.33c0,17.64,10.9,28.45,28.49,28.5,15.64,0,31.28,0,46.92,0,7.16,0,8,.85,8.29,7.94C233.08,359.74,232.37,360.52,220.21,360.48ZM379.9,264.31Q336.64,307.7,293.27,351c-3.46,3.46-7.48,5.29-12.21,3.38s-6.92-6-6.9-11.15c0.06-13.38-.16-26.76-0.16-40.14V298h-5.25c-21.41,0-42.82-.12-64.23-0.14-10.21,0-13.75-3.6-13.76-13.74q0-28.1,0-56.23c0-10.1,3.57-13.75,13.79-13.76,21.41,0,42.82-.13,64.23-0.13h5.35c0.09-2,.21-3.34.21-4.84,0-13.52-.07-27,0-40.51,0.06-8,5.14-12.89,12.06-11.5a13.58,13.58,0,0,1,6.47,3.6q43.61,43.34,87,86.9C385.37,253.11,385.36,258.84,379.9,264.31Z"></path></svg>