<svg height='100px' width='100px'  fill="#F3F3F3" xmlns:x="http://ns.adobe.com/Extensibility/1.0/" xmlns:i="http://ns.adobe.com/AdobeIllustrator/10.0/" xmlns:graph="http://ns.adobe.com/Graphs/1.0/" xmlns="http://www.w3.org/2000/svg" xmlns:xlink="http://www.w3.org/1999/xlink" version="1.1" x="0px" y="0px" viewBox="0 0 100 100" style="enable-background:new 0 0 100 100;" xml:space="preserve"><g><g i:extraneous="self"><g><path d="M87.7,77.1l-7.9-24.7c-0.3-0.9-1.1-1.5-2.1-1.5H67.5l-1.7,4.4h10.3l6.5,20.3H17.7l6.5-20.3h9.6c0-0.1,0-0.1,0.1-0.2     l1.6-4.2H22.5c-1,0-1.8,0.6-2.1,1.5l-7.9,24.7c-0.1,0.2-0.1,0.4-0.1,0.7v17.6c0,1.2,1,2.2,2.2,2.2h71c1.2,0,2.2-1,2.2-2.2V77.7     C87.8,77.5,87.8,77.2,87.7,77.1z"></path><path d="M27.9,65.4c0,1.2,1,2.2,2.2,2.2h40.1c1.2,0,2.2-1,2.2-2.2c0-1.2-1-2.2-2.2-2.2H58.1l9.2-24.3c0.4-1-0.1-2.1-1.1-2.5     l-8.3-3.2L46,35.3l-8.1,21.2c-0.2,0.5-0.2,1,0.1,1.5c0.2,0.5,0.6,0.8,1.1,1l10.7,4.1H30.1C28.9,63.2,27.9,64.1,27.9,65.4z"></path><path d="M36.5,30.8c1.6,0.9,3.5,1.1,5.3,0.8l16.9-3c0.7-0.1,1.3-0.5,1.7-1.1c0.4-0.6,0.6-1.3,0.4-2c-0.2-1.2-1.2-2.1-2.4-2.2     l-0.7,0c-3.8-0.3-7.6-0.2-11.3,0.2l-3.3,0.3c-1.2,0.1-2.3-0.8-2.4-2c-0.1-1.2,0.8-2.3,2-2.4l3.3-0.3c4-0.4,8.1-0.5,12.1-0.2     l0.7,0c3.2,0.2,5.9,2.6,6.5,5.7c0,0.2,0.1,0.3,0.1,0.5L76.1,27c1.2,0.2,2.4-0.3,3.1-1.3c0.5-0.7,0.7-1.6,0.5-2.5     s-0.7-1.6-1.5-2.1L55,7.7c-2.1-1.2-4.6-1.6-7-1l-14,3.4L21.3,22.7L36.5,30.8z"></path><path d="M17.8,20l12-12l-5.3-5.3c-0.4-0.4-1.2-0.4-1.6,0L12.5,13.2c-0.2,0.2-0.3,0.5-0.3,0.8c0,0.3,0.1,0.6,0.3,0.8L17.8,20z"></path></g></g></g></svg>