<svg height='100px' width='100px'  fill="#4D4D4D" xmlns="http://www.w3.org/2000/svg" viewBox="0 0 18 18" x="0px" y="0px"><path fill-rule="evenodd" d="M9,0 C4.029,0 0,4.029 0,9 C0,13.971 4.029,18 9,18 C13.971,18 18,13.971 18,9 C18,4.029 13.971,0 9,0 M9.5,6 L8.5,6 C8.224,6 8,5.776 8,5.5 L8,4.5 C8,4.224 8.224,4 8.5,4 L9.5,4 C9.776,4 10,4.224 10,4.5 L10,5.5 C10,5.776 9.776,6 9.5,6 M9.5,14 L8.5,14 C8.224,14 8,13.776 8,13.5 L8,8.5 C8,8.224 8.224,8 8.5,8 L9.5,8 C9.776,8 10,8.224 10,8.5 L10,13.5 C10,13.776 9.776,14 9.5,14"></path></svg>