<svg height='100px' width='100px'  fill="#4D4D4D" xmlns="http://www.w3.org/2000/svg" xmlns:xlink="http://www.w3.org/1999/xlink" version="1.1" x="0px" y="0px" viewBox="0 0 100 100" enable-background="new 0 0 100 100" xml:space="preserve"><path d="M18.7,26.6c1.3-0.6,2,1,2.2,2.1c1,4.3,2.1,8.7,2.9,13c2.8,14.2,7.3,27.9,11.8,41.7c0.2,0.7,0.6,1.4,1.1,2.5  c1.9-0.4,3.9-0.7,5.7-1.3c6-2,11.9-4.2,17.9-6.2c4.2-1.4,8.5-2.7,12.7-4c1.4-0.4,2.8-1,4.2-1.5c-3.2-11.2-5.2-22.4-6.8-33.7  c-0.3-2-0.5-3.9-0.5-5.9c0-1-0.1-2.6,0.5-3.1c0.6-0.5,2.3,2,2.6,3.3c1,4.4,1.9,8.9,2.9,13.3c1.5,7.1,3,14.1,4.6,21.2  c0.2,1,0.4,1.9,0.6,2.9c0.4,2.5,0.1,2.8-2.3,4.1C67.5,81.1,54.8,84,42.6,88.3c-1.4,0.5-2.9,0.7-4.4,0.9c-2.6,0.4-4.5-0.5-5.5-2.9  c-0.8-1.7-1.5-3.4-2.1-5.2c-5.6-15.2-9-31-11.3-47C18.8,31.6,17.4,27.2,18.7,26.6z M48.8,49.2c0.3,0.1,1,0.1,1.3-0.1  c2.2-1.7,4.6-3,6.3-5.3c7.6-9.9,15.2-19.7,22.8-29.5c0.5-0.7,1.1-1.4,1.5-2.2c0.6-1.3,0-3.1-1.1-4c-1-0.8-2.5-0.8-3.8,0.3  c-0.8,0.6-1.5,1.3-2.1,2.1c-3.9,4.5-8,8.8-11.6,13.5c-3.9,5.1-7.5,10.4-10.9,15.9c-1.3,2-2.3,4.3-2.8,6.7C48,48.8,48.4,49,48.8,49.2  z M78.1,11.8c-8.1,10.7-16.2,21.3-24.7,31.7c6.9-11.9,15.7-22.4,24.3-33c0.2,0.1,0.4,0.1,0.6,0.2C78.2,11.1,78.2,11.6,78.1,11.8z   M64.4,11.9c-3.7,0.6-7.4,1.2-11.1,2c-7.3,1.8-14.6,3.7-21.8,5.6c-3.3,0.9-6.6,2-9.9,3.1C20.7,23,19,24.4,20,24.9  c0.9,0.5,2.6,0,3.8-0.3c12.1-3.1,24.1-6.2,36.2-9.3c1-0.3,2-0.5,3.2-0.7c0.2,0.7,0.2,1,0.3,1.4c0.2,0.9,0.5,1.9,1.7,1.5  c0.5-0.2,0.8-1.2,0.9-1.9c0.1-1,0-2.1,0-3.5C65.4,12,64.9,11.8,64.4,11.9z M55.4,24.9c-1-0.1-2,0-2.9,0.2c-6.6,1.5-13.2,3-19.8,4.6  c-1.6,0.4-3.7,3-3.4,3.4s3.3-1,4.8-1.3c4.4-0.9,12.9-2.3,13.3-2.4c0.4-0.1,0.2-0.1,0.3-0.1c2.9-1.1,9.1-2.9,9.3-3.4  C57.2,25.4,55.8,24.9,55.4,24.9z M54.5,73.6c0.5,0.3,0.9,0.4,1.4,0.3c4.7-0.7,9.3-2,13.5-4.2c1.2-0.7,1.2-1.4,1.1-1.8  c-0.5-0.8-1.5-0.7-2-0.5c-3.9,1.4-7.9,2.5-11.8,3.9C54.2,72,54.3,73,54.3,73S54.5,73.4,54.5,73.6z M45.3,49.3c-3,0.8-6.1,1.7-9,2.7  c-0.9,0.3-1.9,1.2-1.3,3c4.2-0.6,12.1-4,11.7-5C46.3,49,45.5,49.2,45.3,49.3z M46,38c1.4-3-4.1-1-5.9-0.6c-3.2,0.7-9.2,2.8-9,4.3  S40.9,40,46,38z"></path></svg>