<svg height='100px' width='100px'  fill="#4D4D4D" xmlns:x="http://ns.adobe.com/Extensibility/1.0/" xmlns:i="http://ns.adobe.com/AdobeIllustrator/10.0/" xmlns:graph="http://ns.adobe.com/Graphs/1.0/" xmlns="http://www.w3.org/2000/svg" xmlns:xlink="http://www.w3.org/1999/xlink" version="1.1" x="0px" y="0px" viewBox="0 0 100 100" style="enable-background:new 0 0 100 100;" xml:space="preserve"><g><g i:extraneous="self"><g><path d="M40.1,39.6c0.2-0.5,0.4-1.1,0.6-1.7l0.2,9.5h18.1l0.2-9.5c0.2,0.6,0.4,1.2,0.6,1.7c0.6,1.4,1.4,4.7,2.1,7.8h8.2     c-0.8-3.4-1.9-8.5-2.9-10.9c-0.2-0.4-0.4-0.9-0.6-1.5c-1.5-4.1-4.3-11.7-11.4-11.7h-0.3L52,31.5l-1.2-5.3h0.1     c0.4,0,0.8-0.4,0.8-0.8V24c0-0.4-0.4-0.8-0.8-0.8h-1.9c-0.4,0-0.8,0.4-0.8,0.8v1.4c0,0.4,0.4,0.8,0.8,0.8h0.1L48,31.5l-3.1-8.1     h-0.3c-7.1,0-9.9,7.6-11.4,11.7c-0.2,0.6-0.4,1.1-0.6,1.5c-1,2.4-2.2,7.5-2.9,10.9H38C38.7,44.3,39.5,41,40.1,39.6z"></path><circle cx="50" cy="11.9" r="9.4"></circle><path d="M80.9,49.7h-2.4c-0.2-3.6-1.1-7.1-2.5-10.5c0.6-0.6,1-1.4,1-2.4c0-1.8-1.5-3.3-3.3-3.3c-1.8,0-3.3,1.5-3.3,3.3     c0,1.8,1.5,3.3,3.3,3.3c0.1,0,0.1,0,0.2,0c1.3,3,2.1,6.3,2.3,9.6H23.7c0.2-3.3,1-6.5,2.3-9.6c0.1,0,0.1,0,0.2,0     c1.8,0,3.3-1.5,3.3-3.3c0-1.8-1.5-3.3-3.3-3.3S23,35.1,23,36.9c0,0.9,0.4,1.8,1,2.4c-1.4,3.3-2.3,6.9-2.5,10.5h-2.4     c-0.7,0-1.3,0.6-1.3,1.3v5.9c0,0.7,0.6,1.3,1.3,1.3h11.6v38.1c0,0.7,0.6,1.3,1.3,1.3H68c0.7,0,1.3-0.6,1.3-1.3V58.2h11.6     c0.7,0,1.3-0.6,1.3-1.3V51C82.1,50.3,81.6,49.7,80.9,49.7z"></path></g></g></g></svg>