<svg height='100px' width='100px'  fill="#666666" xmlns:x="http://ns.adobe.com/Extensibility/1.0/" xmlns:i="http://ns.adobe.com/AdobeIllustrator/10.0/" xmlns:graph="http://ns.adobe.com/Graphs/1.0/" xmlns="http://www.w3.org/2000/svg" xmlns:xlink="http://www.w3.org/1999/xlink" version="1.1" x="0px" y="0px" viewBox="0 0 100 100" style="enable-background:new 0 0 100 100;" xml:space="preserve"><g><g i:extraneous="self"><g><path d="M5273.1,2400.1v-2c0-2.8-5-4-9.7-4s-9.7,1.3-9.7,4v2c0,1.8,0.7,3.6,2,4.9l5,4.9c0.3,0.3,0.4,0.6,0.4,1v6.4     c0,0.4,0.2,0.7,0.6,0.8l2.9,0.9c0.5,0.1,1-0.2,1-0.8v-7.2c0-0.4,0.2-0.7,0.4-1l5.1-5C5272.4,2403.7,5273.1,2401.9,5273.1,2400.1z      M5263.4,2400c-4.8,0-7.4-1.3-7.5-1.8v0c0.1-0.5,2.7-1.8,7.5-1.8c4.8,0,7.3,1.3,7.5,1.8C5270.7,2398.7,5268.2,2400,5263.4,2400z"></path><path d="M5268.4,2410.3c-0.6,0-1,0.4-1,1c0,0.6,0.4,1,1,1h4.3c0.6,0,1-0.4,1-1c0-0.6-0.4-1-1-1H5268.4z"></path><path d="M5272.7,2413.7h-4.3c-0.6,0-1,0.4-1,1c0,0.6,0.4,1,1,1h4.3c0.6,0,1-0.4,1-1C5273.7,2414.1,5273.3,2413.7,5272.7,2413.7z"></path><path d="M5272.7,2417h-4.3c-0.6,0-1,0.4-1,1c0,0.6,0.4,1,1,1h4.3c0.6,0,1-0.4,1-1C5273.7,2417.5,5273.3,2417,5272.7,2417z"></path></g><g><path d="M24.6,13.6c-1.2-1.5-3.4-1.7-4.9-0.5c-2,1.6-3.8,3.4-5.5,5.3c-1.3,1.4-1.1,3.6,0.3,4.9c0.7,0.6,1.5,0.9,2.3,0.9     c1,0,1.9-0.4,2.6-1.2c1.4-1.6,3-3.2,4.7-4.5C25.6,17.2,25.8,15,24.6,13.6z"></path><path d="M35.6,87.9c-2-0.8-4-1.7-5.9-2.8c-1.7-1-3.8-0.4-4.7,1.3c-1,1.7-0.4,3.8,1.3,4.7c2.2,1.3,4.5,2.4,6.9,3.3     c0.4,0.2,0.8,0.2,1.2,0.2c1.4,0,2.7-0.9,3.2-2.2C38.2,90.6,37.3,88.6,35.6,87.9z"></path><path d="M15.6,71.6c-1-1.6-3.2-2.1-4.8-1.1c-1.6,1-2.1,3.2-1.1,4.8c1.4,2.1,2.9,4.2,4.6,6.1c0.7,0.8,1.6,1.2,2.6,1.2     c0.8,0,1.6-0.3,2.3-0.9c1.4-1.3,1.6-3.5,0.3-4.9C18.1,75.2,16.8,73.5,15.6,71.6z"></path><path d="M6.2,42.8c0.3,0.1,0.5,0.1,0.8,0.1c1.6,0,3-1.1,3.4-2.6c0.5-2.1,1.2-4.2,2.1-6.2c0.7-1.8-0.1-3.8-1.8-4.5     c-1.8-0.7-3.8,0.1-4.5,1.8c-1,2.4-1.8,4.8-2.4,7.3C3.2,40.4,4.4,42.3,6.2,42.8z"></path><path d="M10.5,59.7c-0.5-2.1-0.9-4.3-1.1-6.5c-0.2-1.9-1.8-3.3-3.7-3.2c-1.9,0.2-3.3,1.8-3.2,3.7c0.2,2.5,0.6,5.1,1.2,7.6     C4.1,62.9,5.5,64,7.1,64c0.3,0,0.6,0,0.8-0.1C9.8,63.4,10.9,61.5,10.5,59.7z"></path><path d="M40.3,3.3c-2.5,0.5-5,1.2-7.3,2.1c-1.8,0.7-2.7,2.7-2,4.5c0.5,1.4,1.8,2.2,3.2,2.2c0.4,0,0.8-0.1,1.2-0.2     c2-0.8,4.1-1.4,6.3-1.8c1.9-0.4,3.1-2.2,2.7-4.1C44,4.1,42.1,2.9,40.3,3.3z"></path><path d="M90.6,67.3c-1.7-0.9-3.8-0.2-4.7,1.5c-1,1.9-2.2,3.8-3.5,5.5c-1.1,1.5-0.8,3.7,0.7,4.8c0.6,0.5,1.4,0.7,2.1,0.7     c1.1,0,2.1-0.5,2.8-1.4c1.5-2,2.9-4.2,4.1-6.5C93,70.3,92.3,68.2,90.6,67.3z"></path><path d="M73,83.3c-1.8,1.2-3.7,2.3-5.7,3.3c-1.7,0.8-2.5,2.9-1.6,4.6c0.6,1.2,1.8,2,3.1,2c0.5,0,1-0.1,1.5-0.3     c2.3-1.1,4.5-2.4,6.6-3.8c1.6-1.1,2-3.2,0.9-4.8C76.8,82.6,74.6,82.2,73,83.3z"></path><path d="M54.9,90.2c-2.1,0.3-4.4,0.3-6.5,0.3c-2-0.1-3.5,1.4-3.6,3.3c-0.1,1.9,1.4,3.5,3.3,3.6c0.6,0,1.2,0,1.9,0     c1.9,0,3.9-0.1,5.8-0.3c1.9-0.2,3.2-2,3-3.9C58.5,91.3,56.7,90,54.9,90.2z"></path><path d="M55.3,2.6c-1.9-0.2-3.6,1.2-3.8,3.1s1.2,3.6,3.1,3.8c20.6,2.3,36,19.7,36,40.4c0,2.1-0.2,4.3-0.5,6.4     c-0.3,1.9,1,3.7,2.9,4c0.2,0,0.4,0,0.5,0c1.7,0,3.1-1.2,3.4-2.9c0.4-2.4,0.6-5,0.6-7.5C97.5,25.6,79.4,5.3,55.3,2.6z"></path><path d="M49.3,53.3L67,56.7c0.2,0,0.4,0.1,0.7,0.1c1.6,0,3.1-1.1,3.4-2.8c0.4-1.9-0.9-3.7-2.7-4.1l-15-2.9V25.6     c0-1.9-1.5-3.5-3.5-3.5c-1.9,0-3.5,1.5-3.5,3.5v24.3C46.5,51.5,47.6,52.9,49.3,53.3z"></path></g></g></g></svg>