<svg height='100px' width='100px'  fill="#4D4D4D" xmlns="http://www.w3.org/2000/svg" xmlns:xlink="http://www.w3.org/1999/xlink" version="1.1" x="0px" y="0px" viewBox="0 0 100 100" style="enable-background:new 0 0 100 100;" xml:space="preserve"><polygon points="78.4,66.2 71.9,66.2 68.3,69.8 70.5,69.8 75.5,73 25.9,73 30.8,69.8 43.1,69.8 39.5,66.2 24.1,66.2 3.8,76.9   3.8,83 97.6,83 97.6,76.9 "></polygon><path d="M22.8,13.1c0,0,7-1.3,10.2-0.8c3.7,0.7,20,8.8,21.6,11.6c1.3,2.3,8.8,17.7,9.3,21.3L48.2,29.4c-0.6-0.6-1.3-0.6-1.9,0  L33.6,42.2c-3.6-1.2-7.4-3.1-8.8-4.5c-3.7-3.6-4.9-8.9-7.4-10.4S2.6,24.6,2.6,24.6v-15L22.8,13.1z"></path><path d="M2.6,16v15.2l14.7,2c0,0,5.3,7.5,7.2,9.1c1.8,1.6,11.2,5.6,13.3,6.5c2.8,1.2,8.9,5.8,9.9,3.7C49,49.8,48,44,43.3,41.9  c-4.6-2.2-15.7-7.4-15.5-8.8c0.2-1.4,1.6-9.4,1.6-9.4L2.6,16z"></path><rect x="7.6" y="84.8" width="86.3" height="8.8"></rect><path d="M74.5,59L48.2,31.9c-0.5-0.5-1.2-0.5-1.7,0l-6.2,6.3c1.5,0.8,3,1.4,4.1,1.9c5.9,2.8,6.2,10.7,4.6,14.2  c-1.2,2.7-8.8-2.8-12.4-4.3c-1-0.4-3-1.3-5.4-2.4l-2.6,2.6c-0.5,0.5-0.5,1.2,0,1.7l19.5,20.2h15.4l11-11.3C75,60.2,75,59.5,74.5,59z  "></path></svg>